<svg xmlns="http://www.w3.org/2000/svg" xmlns:xlink="http://www.w3.org/1999/xlink">
  <!-- Другие иконки могут быть здесь -->

  <!-- Вставьте вашу иконку здесь -->
  <symbol id="my-icon" viewBox="0 0 512 512">
    <path fill="" d="M256,26C128.98,26,26,128.98,26,256c0,127.03,102.98,230,230,230c127.03,0,230-102.97,230-230  C486,128.98,383.03,26,256,26z M327.71,303.59l-92.78,54.34c-11.24,6.59-22.45,9.94-33.3,9.94c-0.01,0-0.01,0-0.01,0  
    c-14.52-0.01-27.39-6.11-36.25-17.2c-8.06-10.09-12.32-23.81-12.32-39.67V201c0-15.86,4.26-29.57,12.32-39.66  c-8.86-11.09,21.73-17.20,36.25-17.20c10.86,0,22.06,3.34,33.31,9.93l92.78,54.35c19.86,11.63,31.25,28.98,31.25,47.58  C358.96,274.61,347.57,291.96,327.71,303.59z"/>
  </symbol>
</svg>